PathFileType	4	(X/Y/Z)	..\data\2014014\dynamic\2014014_C4_04.trc
DataRate	CameraRate	NumFrames	NumMarkers	Units	OrigDataRate	OrigDataStartFrame	OrigNumFrames
100.000000	100.000000	4	52	mm	100.000000	66	178
Frame#	Time	L_IAS			L_IPS			R_IPS			R_IAS			L_FTC			L_FLE			L_FME			L_FAX			L_TTC			L_FAL			L_TAM			L_FCC			L_FM1			L_FM2			L_FM5			R_FTC			R_FLE			R_FME			R_FAX			R_TTC			R_FAL			R_TAM			R_FCC			R_FM1			R_FM2			R_FM5			CV7			TV10			SXS			SJN			L_SIA			L_SRS			L_SAA			L_SAE			L_HLE			L_HME			L_UOA			L_RSP			L_UHE			L_HM2			L_HM5			R_SIA			R_SRS			R_SAA			R_SAE			R_HLE			R_HME			R_UOA			R_RSP			R_UHE			R_HM2			R_HM5			
		X1	Y1	Z1	X2	Y2	Z2	X3	Y3	Z3	X4	Y4	Z4	X5	Y5	Z5	X6	Y6	Z6	X7	Y7	Z7	X8	Y8	Z8	X9	Y9	Z9	X10	Y10	Z10	X11	Y11	Z11	X12	Y12	Z12	X13	Y13	Z13	X14	Y14	Z14	X15	Y15	Z15	X16	Y16	Z16	X17	Y17	Z17	X18	Y18	Z18	X19	Y19	Z19	X20	Y20	Z20	X21	Y21	Z21	X22	Y22	Z22	X23	Y23	Z23	X24	Y24	Z24	X25	Y25	Z25	X26	Y26	Z26	X27	Y27	Z27	X28	Y28	Z28	X29	Y29	Z29	X30	Y30	Z30	X31	Y31	Z31	X32	Y32	Z32	X33	Y33	Z33	X34	Y34	Z34	X35	Y35	Z35	X36	Y36	Z36	X37	Y37	Z37	X38	Y38	Z38	X39	Y39	Z39	X40	Y40	Z40	X41	Y41	Z41	X42	Y42	Z42	X43	Y43	Z43	X44	Y44	Z44	X45	Y45	Z45	X46	Y46	Z46	X47	Y47	Z47	X48	Y48	Z48	X49	Y49	Z49	X50	Y50	Z50	X51	Y51	Z51	X52	Y52	Z52	

67	0.66	675.4476928710939	973.6352539062502	-355.5606994628907	468.7121582031251	997.6408691406252	-267.3619079589844	470.5750427246095	992.4871215820315	-163.4110107421875	676.5920410156251	982.120544433594	-100.6495971679688	570.6992187500001	880.2527465820315	-417.4384765625001	466.6511230468751	490.9426879882814	-366.0646057128907	482.342498779297	481.1578674316407	-230.2324829101563	420.6064758300782	443.960906982422	-362.8609313964844	483.3534545898439	399.4129333496095	-320.9114379882813	235.4978179931641	112.5836563110352	-310.9656982421876	279.3232421875001	136.6519012451172	-220.3901672363282	176.4935302734375	95.00447082519533	-246.2954864501954	356.6557922363282	23.96830558776856	-207.7024688720704	373.0105590820313	34.65252685546876	-264.7651062011719	316.6783142089844	15.9127893447876	-321.5426940917969	625.3726806640626	881.519958496094	-33.45444869995118	711.0942993164064	480.3849182128907	-108.7472000122071	734.0052490234376	494.5155639648439	-234.8665771484376	704.8697509765626	424.078094482422	-103.673210144043	775.2126464843752	433.9541015625001	-152.370346069336	768.879333496094	57.7501907348633	-122.3278884887696	803.009216308594	94.33892059326173	-213.6107330322266	735.8910522460939	20.52828979492188	-188.0345458984375	939.4216918945315	38.09557342529298	-203.9796600341797	934.792175292969	50.44546508789064	-145.8828125	893.688903808594	23.73441886901856	-94.6866912841797	513.5289306640626	1520.445068359375	-217.4703979492188	421.5098876953126	1273.4150390625	-230.5289154052735	693.1538696289064	1246.120483398438	-219.9863281250001	639.2723388671876	1426.14306640625	-208.6498413085938	409.7259521484376	1307.214111328125	-343.0504455566407	449.6893310546876	1450.274658203125	-339.8179321289063	495.0815429687501	1450.228759765625	-402.4214172363282	547.7720947265626	1445.645874023438	-423.717987060547	601.2067871093751	1114.006713867188	-529.6817016601564	553.3923339843751	1089.055419921875	-452.4721984863282	564.2875366210939	1078.0556640625	-510.086151123047	779.3150634765627	919.6560668945315	-448.7245483398439	727.9990844726564	887.8225097656252	-514.0236816406251	845.4354248046877	859.8553466796877	-456.4978027343751	762.5347290039064	811.0893554687502	-512.7758789062501	395.2438354492189	1295.66943359375	-115.3399810791016	450.2022705078126	1437.322143554688	-92.14489746093751	490.8692932128907	1418.604614257813	-23.09969329833985	535.9917602539064	1413.668334960938	-3.906573534011842	507.8663940429689	1072.947631835938	60.33008575439455	498.1527099609376	1063.084228515625	-40.05302810668946	471.4293823242189	1056.431518554688	23.59814453125	592.9854736328126	815.5171508789065	11.60604286193848	520.9523925781251	823.486267089844	69.43112182617189	613.6778564453126	721.2603149414064	33.09394836425782	506.9744873046876	725.8980712890626	63.77936935424806	
68	0.67	687.8965454101564	974.1220703125002	-353.5755004882813	481.1990661621095	997.8428955078127	-266.3692626953126	482.7271118164064	993.575622558594	-162.2442779541016	688.7700805664064	983.985046386719	-99.13854980468753	584.1682128906251	880.2007446289065	-415.9346618652345	483.5556640625001	490.0478515625001	-369.7297973632813	499.7789001464845	478.7713012695314	-233.9888305664063	436.3090209960939	443.9568481445314	-366.4368591308594	498.3508911132814	397.9551696777345	-325.3279113769532	241.8243713378907	118.6484069824219	-313.2112731933594	286.7029113769532	141.3041381835938	-222.9677886962891	182.5218200683594	104.615463256836	-248.1404724121094	356.6221618652344	24.94964790344239	-207.3035278320313	373.0468444824219	34.58090972900391	-264.4044799804688	317.2870483398438	16.64901161193848	-321.2411499023438	638.2586669921876	883.6940917968752	-31.8260841369629	723.0593872070314	481.7649841308595	-107.6678237915039	744.2081909179689	495.6156616210939	-233.8119049072266	716.2662963867189	425.2251281738282	-102.4348297119141	785.3679199218752	434.011932373047	-152.4306945800782	770.724792480469	57.84762573242189	-122.5762100219727	803.9807739257815	93.09116363525392	-214.7604370117188	735.3219604492189	21.18379592895508	-187.658447265625	940.2442016601565	32.84657669067384	-205.8727264404297	937.176940917969	46.34365463256837	-147.4433288574219	894.7752685546877	21.22179603576661	-95.02516174316408	525.1443481445314	1521.402587890625	-215.781234741211	433.3339233398439	1274.259399414063	-229.4836730957032	705.0582885742189	1247.220336914063	-218.6167144775391	650.9636230468751	1427.153442382813	-207.0834503173829	421.4642639160157	1308.214111328125	-341.7167358398438	461.3503723144532	1451.423461914063	-338.2591857910157	506.7369384765626	1451.492065429688	-400.834197998047	559.4234619140626	1446.899780273438	-422.1941528320314	610.0228271484376	1114.579833984375	-527.8638305664064	562.5414428710939	1090.321044921875	-449.9566345214845	572.8095092773439	1079.154174804688	-507.787567138672	786.233337402344	918.034851074219	-448.3368530273439	733.9629516601564	886.8883056640627	-513.2188110351564	851.5395507812502	857.4512329101565	-456.8174133300782	767.5443725585939	809.7308349609377	-512.3153686523439	407.1077575683595	1296.275756835938	-114.1143569946289	461.8499450683595	1437.901489257813	-90.69155883789064	502.1762084960939	1419.375610351563	-21.45630836486817	547.6095581054689	1414.166015625	-2.451905250549317	521.1030273437501	1073.270263671875	61.386043548584	511.4522399902345	1063.313598632813	-38.9818229675293	484.6062622070314	1056.800659179688	24.73139953613282	605.6671142578126	815.731384277344	12.3824520111084	533.8710327148439	823.8975219726565	70.49179840087892	626.0053100585939	721.2700805664064	33.79142379760743	519.5140380859376	726.4607543945314	65.12535095214845	
69	0.68	700.0750732421876	974.7630615234377	-351.5603637695313	493.4585571289064	998.1643066406252	-265.3858947753907	494.7409057617189	994.8276977539065	-161.074462890625	700.7986450195314	986.0411376953127	-97.63372039794925	597.5833740234376	880.1475219726565	-414.3734436035157	501.5005493164064	489.0211791992189	-373.4552917480469	518.6561889648439	476.0953369140626	-237.9637756347657	453.1388549804689	443.8852844238282	-370.1248168945313	514.4425659179689	396.4514160156251	-329.9252929687501	249.2457122802735	125.3101348876953	-315.4226074218751	295.2309875488282	146.3617095947266	-225.5196228027344	189.8446044921875	115.0779037475586	-249.9303894042969	356.9449768066407	26.41222190856934	-206.9853820800782	373.4314270019532	34.73224258422852	-264.1410217285157	318.3420410156251	18.11719131469727	-321.0642395019532	650.8616333007814	885.9869384765627	-30.1803092956543	734.4318237304689	483.137176513672	-106.6034393310547	753.9863281250001	496.7273254394532	-232.7543945312501	727.0543823242189	426.4177246093751	-101.236930847168	795.0021972656252	434.1120605468751	-152.3954772949219	772.1631469726565	58.11302947998048	-122.7479553222657	804.546813964844	92.0359573364258	-215.8413543701172	734.8708496093751	21.75233840942383	-187.2612915039063	940.8197021484377	28.48597145080567	-207.2289581298829	939.1738281250002	43.08381271362305	-148.5491790771485	895.5242919921877	19.37730407714844	-94.95919799804689	536.7689819335939	1522.528076171875	-214.1129913330079	445.1017456054689	1275.30810546875	-228.4083404541016	716.8993530273439	1248.467651367188	-217.2815093994141	662.6518554687501	1428.342163085938	-205.5457153320313	433.184295654297	1309.493896484375	-340.4998474121094	473.0437316894532	1452.775268554688	-336.7390136718751	518.4190063476564	1452.990844726563	-399.2742919921876	571.1076049804689	1448.40185546875	-420.6807556152345	618.6371459960939	1115.389038085938	-525.9672851562501	571.5169677734376	1091.926513671875	-447.3285522460939	581.1143188476564	1080.564819335938	-505.3795471191407	792.6614379882815	916.3491210937502	-448.0007934570314	739.3372192382814	886.0176391601565	-512.4119873046876	857.0131835937502	854.8592529296877	-457.2283935546876	771.7999267578127	808.3814697265627	-511.871307373047	418.9663391113282	1297.131469726563	-112.8389129638672	473.4893188476564	1438.697509765625	-89.25400543212892	513.5128784179689	1420.3486328125	-19.86580657958985	559.2277832031251	1414.921508789063	-1.00970721244812	534.4102783203126	1073.884643554688	62.469539642334	524.8772583007814	1063.8095703125	-37.89161682128907	497.8584289550782	1057.432983398438	25.88640975952149	618.6411132812501	816.3099365234377	13.18107700347901	547.1115112304689	824.6201782226565	71.5904006958008	638.7174682617189	721.6518554687501	34.49810791015626	532.4475097656251	727.3347778320314	66.5393524169922	
70	0.6900000000000001	711.9304199218751	975.5286865234377	-349.5817565917969	505.4471130371095	998.5896606445315	-264.4043884277344	506.5915832519532	996.2020263671877	-159.9082794189453	712.6574707031251	988.2009887695315	-96.16616821289065	610.8446655273439	880.0888671875002	-412.7871093750001	520.4454956054689	487.8848876953126	-377.1661376953126	538.9090576171876	473.200164794922	-242.0742645263672	471.0873107910157	443.7595825195314	-373.8632202148438	531.6143798828126	394.9350585937501	-334.5826721191407	257.8202209472657	132.5796661376953	-317.5669555664063	304.9300231933594	151.8291625976563	-227.9921569824219	198.5207672119141	126.3098449707032	-251.6487579345704	357.8377380371094	28.43904113769532	-206.8550415039063	374.3641967773438	35.21141433715821	-264.0750732421876	320.0249633789063	20.48442840576172	-321.0880126953126	663.1232910156251	888.3015136718752	-28.55080032348634	745.0496826171876	484.4254455566407	-105.5877761840821	763.2482299804689	497.7772827148439	-231.7244567871094	737.0606079101564	427.5829162597657	-100.1189498901367	803.9964599609377	434.203826904297	-152.2654724121094	773.2593994140627	58.50373458862306	-122.8622360229492	804.8057861328127	91.18899536132814	-216.834945678711	734.6011352539064	22.21503639221192	-186.8712615966797	941.2158813476565	25.07497024536134	-208.1110534667969	940.8206176757815	40.68518066406251	-149.2622528076172	896.0322265625002	18.17860412597657	-94.58635711669923	548.3948974609376	1523.77978515625	-212.4745788574219	456.797088623047	1276.523071289063	-227.2888946533204	728.6622924804689	1249.810913085938	-216.0045318603516	674.3284912109376	1429.660034179688	-204.0549926757813	444.8497619628907	1311.010986328125	-339.3840942382813	484.7471313476564	1454.284423828125	-335.2589416503907	530.1047973632814	1454.672973632813	-397.7486877441407	582.7998657226564	1450.099731445313	-419.187957763672	627.0660400390626	1116.40087890625	-524.0174560546876	580.3318481445314	1093.82421875	-444.6397399902345	589.2290649414064	1082.246948242188	-502.900115966797	798.6233520507815	914.5933837890627	-447.7165832519532	744.1666870117189	885.2064208984377	-511.6114196777345	861.8753051757815	852.0773925781252	-457.7015991210939	775.3447265625002	807.044128417969	-511.4350585937501	430.8152465820314	1298.197387695313	-111.5067596435547	485.1273498535157	1439.670288085938	-87.83100891113283	524.9027099609376	1421.4736328125	-18.33234405517578	570.8645019531251	1415.890991210938	0.4119171500205995	547.7510375976564	1074.748901367188	63.59032440185548	538.3693847656251	1064.538208007813	-36.77111434936524	511.1484985351564	1058.283325195313	27.07611465454102	631.9044189453126	817.2280883789065	13.99956321716309	560.6699829101564	825.6094360351565	72.72322845458986	651.8366699218751	722.3819580078126	35.20098495483399	545.7935180664064	728.4686889648439	67.99903106689455	
